<svg xmlns="http://www.w3.org/2000/svg" viewBox="0 0 64 64" role="img" aria-label="Logo mark">
  <defs>
    <radialGradient id="orb" cx="28%" cy="22%" r="90%">
      <stop offset="0" stop-color="#b9f7ff" />
      <stop offset="0.35" stop-color="#39d7ff" />
      <stop offset="0.7" stop-color="#0a7be6" />
      <stop offset="1" stop-color="#053a9b" />
    </radialGradient>

    <linearGradient id="bandLight" x1="0" y1="0" x2="1" y2="1">
      <stop offset="0" stop-color="#bffbff" />
      <stop offset="0.4" stop-color="#4de6ff" />
      <stop offset="1" stop-color="#06b6ff" />
    </linearGradient>

    <linearGradient id="bandDark" x1="1" y1="0" x2="0" y2="1">
      <stop offset="0" stop-color="#07306f" />
      <stop offset="1" stop-color="#0b62c9" />
    </linearGradient>

    <clipPath id="clip">
      <circle cx="32" cy="32" r="28" />
    </clipPath>
  </defs>

  <!-- Orb base -->
  <circle cx="32" cy="32" r="28" fill="url(#orb)" />

  <!-- Subtle specular highlight -->
  <ellipse cx="24" cy="20" rx="16" ry="10" fill="#ffffff" opacity="0.18" />

  <!-- Bands clipped to orb -->
  <g clip-path="url(#clip)">
    <!-- Upper light band -->
    <path
      d="M-6 22 C 7 12, 24 12, 38 20 C 50 27, 66 28, 78 22 L 78 34 C 66 40, 50 39, 38 32 C 24 24, 7 24, -6 34 Z"
      fill="url(#bandLight)"
      opacity="0.98"
    />

    <!-- Middle dark band (gap/shadow) -->
    <path
      d="M-8 30 C 8 21, 26 21, 40 29 C 54 37, 68 38, 80 32 L 80 41 C 68 47, 54 46, 40 40 C 26 33, 8 33, -8 42 Z"
      fill="url(#bandDark)"
      opacity="0.95"
    />

    <!-- Lower light band -->
    <path
      d="M-10 40 C 6 31, 24 31, 40 39 C 55 46, 70 48, 82 42 L 82 54 C 70 59, 55 58, 40 51 C 24 44, 6 44, -10 55 Z"
      fill="url(#bandLight)"
      opacity="0.96"
    />
  </g>

  <!-- Edge depth -->
  <circle cx="32" cy="32" r="28" fill="none" stroke="#021b4d" stroke-opacity="0.18" />
</svg>
